<!DOCTYPE svg PUBLIC "-//W3C//DTD SVG 1.1//EN" "http://www.w3.org/Graphics/SVG/1.1/DTD/svg11.dtd">

<!-- Uploaded to: SVG Repo, www.svgrepo.com, Transformed by: SVG Repo Mixer Tools -->
<svg fill="#5c1819" height="256px" width="256px"  viewBox="0 0 48 48" xmlns="http://www.w3.org/2000/svg" >

<g id="SVGRepo_bgCarrier" stroke-width="0"/>

<g id="SVGRepo_tracerCarrier" stroke-linecap="round" stroke-linejoin="round"/>

<g id="SVGRepo_iconCarrier"> <path d="M183.785,24.69h15c0,12.606,7.87,23.401,18.952,27.749l0.098-3.708c0.365-13.751-1.061-27.49-4.24-40.873l-1.113-4.684 C212.041,1.313,210.379,0,208.467,0H156.44v59.273c0,4.143-3.357,7.5-7.5,7.5c-4.143,0-7.5-3.357-7.5-7.5V0H89.412 c-1.912,0-3.574,1.313-4.016,3.174l-1.113,4.687c-3.179,13.381-4.605,27.118-4.241,40.867l0.098,3.705 c11.073-4.353,18.935-15.143,18.935-27.742h15c0,20.809-14.261,38.348-33.522,43.362l5.969,225.806 c0.059,2.237,1.889,4.019,4.127,4.019h37.483c2.169,0,3.968-1.679,4.118-3.842l14.168-204.362c0.092-1.32,1.189-2.344,2.513-2.344 c1.323,0,2.421,1.024,2.512,2.344l14.169,204.362c0.15,2.164,1.949,3.842,4.118,3.842h37.482c2.237,0,4.067-1.782,4.126-4.018 l5.986-225.802C198.054,63.048,183.785,45.505,183.785,24.69z"/> </g>

</svg>