<!DOCTYPE svg PUBLIC "-//W3C//DTD SVG 1.1//EN" "http://www.w3.org/Graphics/SVG/1.1/DTD/svg11.dtd">
<!-- Uploaded to: SVG Repo, www.svgrepo.com, Transformed by: SVG Repo Mixer Tools -->
<svg fill="#5c1819" width="256px" height="256px" viewBox="0 0 512 512" xmlns="http://www.w3.org/2000/svg">
<g id="SVGRepo_bgCarrier" stroke-width="0"/>
<g id="SVGRepo_tracerCarrier" stroke-linecap="round" stroke-linejoin="round"/>
<g id="SVGRepo_iconCarrier">
<title>ionicons-v5-q</title>
<path d="M256,42c-33.88,0-64-10-64-10l0,2A64,64,0,0,0,320,34l0-2S289.88,42,256,42Z"/>
<path d="M352,44c-5.49,47.76-46.79,85-96,85s-90.51-37.24-96-85L16,94,34,208l61.71,7.42c7.08.9,7.1.9,7.1,8.19L96,480H416l-6.81-256.39c-.21-7-.21-7,7.1-8.19L478,208,496,94Z"/>
</g>
</svg>