<!DOCTYPE svg PUBLIC "-//W3C//DTD SVG 1.1//EN" "http://www.w3.org/Graphics/SVG/1.1/DTD/svg11.dtd">
<!-- Uploaded to: SVG Repo, www.svgrepo.com, Transformed by: SVG Repo Mixer Tools -->
<svg version="1.1" id="Uploaded to svgrepo.com" xmlns="http://www.w3.org/2000/svg" xmlns:xlink="http://www.w3.org/1999/xlink" width="256px" height="256px" viewBox="0 0 32 32" xml:space="preserve" fill="#fff700" stroke="#fff700" stroke-width="0.00032">
<g id="SVGRepo_bgCarrier" stroke-width="0"/>
<g id="SVGRepo_tracerCarrier" stroke-linecap="round" stroke-linejoin="round" stroke="#000000" stroke-width="0.192"> <style type="text/css"> .sharpcorners_een{fill:#fff700;} .st0{fill:#fff700;} </style> <path class="sharpcorners_een" d="M14,9l-4-6h3l3,2l3-2h3l-4,6l-2-3L14,9z M26,15l-1.4-1.4L25,29H7l0.4-15.4L6,15l-5-5l6-6h2.465 L14,10.803l2-3l2,3L22.535,4H25l6,6L26,15z M17,25h-1v1h1V25z M17,21h-1v1h1V21z M17,17h-1v1h1V17z M17,13h-1v1h1V13z"/> </g>
<g id="SVGRepo_iconCarrier"> <style type="text/css"> .sharpcorners_een{fill:#fff700;} .st0{fill:#fff700;} </style> <path class="sharpcorners_een" d="M14,9l-4-6h3l3,2l3-2h3l-4,6l-2-3L14,9z M26,15l-1.4-1.4L25,29H7l0.4-15.4L6,15l-5-5l6-6h2.465 L14,10.803l2-3l2,3L22.535,4H25l6,6L26,15z M17,25h-1v1h1V25z M17,21h-1v1h1V21z M17,17h-1v1h1V17z M17,13h-1v1h1V13z"/> </g>
</svg>